<?xml version="1.0" encoding="utf-8"?>
<!-- Generator: Adobe Illustrator 15.1.0, SVG Export Plug-In . SVG Version: 6.00 Build 0)  -->
<!DOCTYPE svg PUBLIC "-//W3C//DTD SVG 1.1//EN" "http://www.w3.org/Graphics/SVG/1.1/DTD/svg11.dtd">
<svg version="1.1" id="Capa_1" xmlns="http://www.w3.org/2000/svg" xmlns:xlink="http://www.w3.org/1999/xlink" x="0px" y="0px"
	 width="70.001px" height="80px" viewBox="0 0 70.001 80" enable-background="new 0 0 70.001 80" xml:space="preserve">
<path fill="#FFFFFF" d="M64.991,22.274C64.874,20.986,63.793,20,62.5,20h-5H50v-5c0-8.271-6.729-15-15-15c-8.272,0-15,6.729-15,15v5
	h-7.5h-5c-1.293,0-2.373,0.986-2.49,2.274l-5,55.001c-0.063,0.698,0.171,1.392,0.644,1.91C1.128,79.704,1.798,80,2.5,80h65
	c0.702,0,1.372-0.296,1.846-0.814s0.708-1.212,0.645-1.91L64.991,22.274z M25,15c0-5.514,4.485-10,10-10c5.514,0,10,4.486,10,10v5
	H25V15z M5.239,75l4.545-50H12.5H20v5.694c-1.488,0.865-2.5,2.46-2.5,4.306c0,2.761,2.239,5,5,5s5-2.239,5-5
	c0-1.846-1.012-3.44-2.5-4.306V25h20v5.694c-1.488,0.865-2.5,2.46-2.5,4.306c0,2.761,2.239,5,5,5s5-2.239,5-5
	c0-1.846-1.012-3.44-2.5-4.306V25h7.5h2.717l4.545,50H5.239z"/>
</svg>
